<?xml version="1.0" encoding="UTF-8"?>
<svg xmlns="http://www.w3.org/2000/svg" viewBox="0 0 500 500">
  <defs>
    <style>
      .cls-1 {
        fill: #71f1a1;
      }

      .cls-1, .cls-2 {
        stroke-width: 0px;
      }

      .cls-2 {
        fill: #2d2d2d;
      }
    </style>
  </defs>
  <g id="background">
    <rect class="cls-2" width="500" height="500"/>
  </g>
  <g id="_5_wordmark" data-name="5_wordmark">
    <path class="cls-1" d="m76.6,275.19v53.09h346.8v-53.09H76.6Zm13.96,46.86h-7.94v-40.62h7.94v40.62Zm39.51-.03h-9.42l-14.39-29.29v29.29h-7.32v-40.6h9.36l14.45,29.74v-29.74h7.32v40.6Zm25.37.03h-5.98l-13.52-40.62h7.88l8.63,27.1,8.63-27.1h7.88l-13.52,40.62Zm45.77-33.25h-19.56v9.39h16.48v7.38h-16.48v9.11h19.56v7.38h-27.21v-40.62h27.21v7.38Zm35.23,21.35c0,3.91-1.35,6.94-4.05,9.1-2.7,2.15-6.51,3.23-11.43,3.23-1.94,0-3.83-.2-5.69-.59-1.85-.39-3.59-.96-5.21-1.72-1.62-.75-3.08-1.66-4.39-2.72l3.55-6.31c1.56,1.28,3.37,2.28,5.42,2.98,2.05.7,4.15,1.05,6.31,1.05,2.5,0,4.43-.42,5.81-1.27,1.38-.85,2.07-2.04,2.07-3.59v-.03c0-1.17-.34-2.07-1.03-2.7-.69-.62-1.6-1.09-2.72-1.38-1.13-.3-2.35-.55-3.67-.75-1.58-.24-3.19-.55-4.81-.91-1.62-.36-3.11-.94-4.47-1.73-1.36-.79-2.45-1.92-3.28-3.4-.83-1.47-1.24-3.44-1.24-5.89v-.03c0-3.97,1.3-7.04,3.91-9.21,2.61-2.17,6.3-3.25,11.06-3.25,2.2,0,4.43.37,6.71,1.1,2.27.74,4.39,1.78,6.34,3.14l-3.24,6.48c-1.56-1.1-3.2-1.94-4.9-2.53-1.7-.59-3.34-.88-4.9-.88-2.35,0-4.16.39-5.45,1.16-1.29.77-1.93,1.86-1.93,3.26v.03c0,1.3.38,2.29,1.15,2.96.76.67,1.76,1.17,2.99,1.5,1.23.33,2.55.63,3.97.91,1.56.3,3.12.67,4.67,1.1,1.55.44,2.96,1.07,4.25,1.89,1.29.82,2.31,1.95,3.07,3.38.76,1.43,1.15,3.3,1.15,5.59v.06Zm31.18-21.35h-11.06v33.25h-7.66v-33.25h-11.06v-7.38h29.78v7.38Zm40.12,33.25h-6.96v-28.85l-7.49,24.32h-6.76l-7.49-23.78v28.31h-6.96v-40.62h10.09l7.74,27.38,7.74-27.38h10.09v40.62Zm36.15-33.25h-19.56v9.39h16.48v7.38h-16.48v9.11h19.56v7.38h-27.21v-40.62h27.21v7.38Zm38.11,33.22h-9.42l-14.39-29.29v29.29h-7.32v-40.6h9.36l14.45,29.74v-29.74h7.32v40.6Zm35.37-33.22h-11.06v33.25h-7.66v-33.25h-11.06v-7.38h29.78v7.38Z"/>
    <g>
      <path class="cls-1" d="m98.8,256.52v-71.4h-22.2v-6.2c5.52,0,10-4.48,10-10h52.4v16.2h-22.2v71.4h-18Z"/>
      <path class="cls-1" d="m151.72,256.52v-87.6h28.08c6.24,0,11.64,1.08,16.2,3.24,4.56,2.16,8.1,5.24,10.62,9.24,2.52,4,3.78,8.72,3.78,14.16s-1.38,10.76-4.14,15.24c-2.76,4.48-6.5,7.72-11.22,9.72l16.56,36h-19.56l-14.16-33.12h-8.4v33.12h-17.76Zm17.76-48.72h10.32c4,0,7.1-1,9.3-3,2.2-2,3.3-4.8,3.3-8.4s-1.1-6.68-3.3-8.76c-2.2-2.08-5.3-3.12-9.3-3.12h-10.32v23.28Z"/>
      <path class="cls-1" d="m251.8,257.72c-8.8,0-15.8-2.48-21-7.44-5.2-4.96-7.8-11.68-7.8-20.16v-34.8c0-8.56,2.6-15.3,7.8-20.22,5.2-4.92,12.2-7.38,21-7.38s15.8,2.46,21,7.38c5.2,4.92,7.8,11.66,7.8,20.22v34.8c0,8.48-2.6,15.2-7.8,20.16-5.2,4.96-12.2,7.44-21,7.44Zm0-15.6c3.6,0,6.3-.94,8.1-2.82,1.8-1.88,2.7-4.54,2.7-7.98v-37.2c0-3.52-.88-6.2-2.64-8.04-1.76-1.84-4.48-2.76-8.16-2.76s-6.4.92-8.16,2.76c-1.76,1.84-2.64,4.52-2.64,8.04v37.2c0,3.44.9,6.1,2.7,7.98,1.8,1.88,4.5,2.82,8.1,2.82Z"/>
      <path class="cls-1" d="m312.52,256.52l-21.72-87.6h18.6l12.12,55.32c.4,1.92.9,4.36,1.5,7.32l1.43,7.08,1.15-7.08c.48-2.96.92-5.44,1.32-7.44l11.76-55.2h18.12l-21.48,87.6h-22.8Z"/>
      <path class="cls-1" d="m369.4,256.52v-87.6h54v15.6h-36.36v19.68h32.16v14.88h-32.16v21.84h36.36v15.6h-54Z"/>
    </g>
  </g>
</svg>