<?xml version="1.0" encoding="UTF-8"?>
<svg id="color-pallete" xmlns="http://www.w3.org/2000/svg" viewBox="0 0 500 200">
  <defs>
    <style>
      .cls-1 {
        fill: #2d4c3c;
        stroke-width: 0px;
      }
    </style>
  </defs>
  <g>
    <g>
      <rect class="cls-1" x="158.55" y="126.9" width="6.38" height="32.66"/>
      <polygon class="cls-1" points="190.8 150.81 179.19 126.9 171.67 126.9 171.67 159.54 177.55 159.54 177.55 135.99 189.12 159.54 196.69 159.54 196.69 126.9 190.8 126.9 190.8 150.81"/>
      <polygon class="cls-1" points="214.68 148.69 207.74 126.9 201.41 126.9 212.28 159.56 217.08 159.56 227.95 126.9 221.62 126.9 214.68 148.69"/>
      <polygon class="cls-1" points="234.22 126.9 231.99 126.9 231.99 159.56 234.22 159.56 238.15 159.56 253.87 159.56 253.87 153.63 238.15 153.63 238.15 146.31 251.4 146.31 251.4 140.38 238.15 140.38 238.15 132.83 253.87 132.83 253.87 126.9 238.15 126.9 234.22 126.9"/>
      <path class="cls-1" d="m278.8,142.74c-1.03-.66-2.17-1.16-3.41-1.52-1.24-.35-2.49-.65-3.75-.89-1.14-.22-2.2-.47-3.19-.73-.99-.26-1.79-.66-2.4-1.2-.61-.54-.92-1.33-.92-2.38v-.02c0-1.12.52-2,1.55-2.62,1.03-.62,2.49-.93,4.38-.93,1.26,0,2.57.24,3.94.71,1.37.47,2.68,1.15,3.94,2.03l2.61-5.21c-1.57-1.09-3.27-1.93-5.1-2.53-1.83-.59-3.62-.89-5.39-.89-3.83,0-6.8.87-8.89,2.62-2.1,1.74-3.14,4.21-3.14,7.4v.02c0,1.98.33,3.56,1,4.74.67,1.18,1.55,2.09,2.64,2.73,1.09.64,2.29,1.1,3.59,1.39,1.3.29,2.59.54,3.86.73,1.06.16,2.05.37,2.95.61.91.24,1.64.61,2.19,1.11.55.5.83,1.22.83,2.17v.02c0,1.24-.55,2.2-1.66,2.89-1.11.68-2.67,1.02-4.67,1.02-1.74,0-3.43-.28-5.08-.84-1.65-.56-3.1-1.36-4.36-2.39l-2.85,5.08c1.05.85,2.22,1.58,3.53,2.19,1.3.61,2.7,1.07,4.19,1.38s3.01.47,4.57.47c3.95,0,7.01-.86,9.19-2.59s3.26-4.17,3.26-7.31v-.04c0-1.84-.31-3.34-.92-4.49-.61-1.15-1.44-2.06-2.47-2.72Z"/>
      <polygon class="cls-1" points="283.31 132.83 292.21 132.83 292.21 159.56 298.36 159.56 298.36 132.83 307.26 132.83 307.26 126.9 283.31 126.9 283.31 132.83"/>
      <polygon class="cls-1" points="325.18 148.91 318.96 126.9 310.85 126.9 310.85 159.56 316.44 159.56 316.44 136.8 322.46 155.92 327.89 155.92 333.91 136.37 333.91 159.56 339.51 159.56 339.51 126.9 331.4 126.9 325.18 148.91"/>
      <polygon class="cls-1" points="348.92 126.9 346.69 126.9 346.69 159.56 348.92 159.56 352.85 159.56 368.57 159.56 368.57 153.63 352.85 153.63 352.85 146.31 366.1 146.31 366.1 140.38 352.85 140.38 352.85 132.83 368.57 132.83 368.57 126.9 352.85 126.9 348.92 126.9"/>
      <polygon class="cls-1" points="393.32 150.81 381.71 126.9 374.18 126.9 374.18 159.54 380.07 159.54 380.07 135.99 391.63 159.54 399.2 159.54 399.2 126.9 393.32 126.9 393.32 150.81"/>
      <polygon class="cls-1" points="427.64 126.9 403.69 126.9 403.69 132.83 412.59 132.83 412.59 159.56 418.74 159.56 418.74 132.83 427.64 132.83 427.64 126.9"/>
    </g>
    <g>
      <path class="cls-1" d="m175.78,109.01v-55.4h-17.23v-4.81c4.29,0,7.76-3.47,7.76-7.76h40.66v12.57h-17.23v55.4h-13.97Z"/>
      <path class="cls-1" d="m216.84,109.01V41.04h21.79c4.84,0,9.03.84,12.57,2.51,3.54,1.68,6.28,4.07,8.24,7.17,1.96,3.1,2.93,6.77,2.93,10.99s-1.07,8.35-3.21,11.83c-2.14,3.48-5.04,5.99-8.71,7.54l12.85,27.93h-15.18l-10.99-25.7h-6.52v25.7h-13.78Zm13.78-37.8h8.01c3.1,0,5.51-.78,7.22-2.33,1.71-1.55,2.56-3.72,2.56-6.52s-.85-5.18-2.56-6.8c-1.71-1.61-4.11-2.42-7.22-2.42h-8.01v18.06Z"/>
      <path class="cls-1" d="m294.49,109.94c-6.83,0-12.26-1.92-16.29-5.77-4.04-3.85-6.05-9.06-6.05-15.64v-27c0-6.64,2.02-11.87,6.05-15.69,4.03-3.82,9.47-5.73,16.29-5.73s12.26,1.91,16.29,5.73c4.03,3.82,6.05,9.05,6.05,15.69v27c0,6.58-2.02,11.79-6.05,15.64-4.04,3.85-9.47,5.77-16.29,5.77Zm0-12.1c2.79,0,4.89-.73,6.28-2.19,1.4-1.46,2.09-3.52,2.09-6.19v-28.86c0-2.73-.68-4.81-2.05-6.24-1.37-1.43-3.48-2.14-6.33-2.14s-4.97.71-6.33,2.14c-1.37,1.43-2.05,3.51-2.05,6.24v28.86c0,2.67.7,4.73,2.09,6.19,1.4,1.46,3.49,2.19,6.28,2.19Z"/>
      <path class="cls-1" d="m341.6,109.01l-16.85-67.97h14.43l9.4,42.92c.31,1.49.7,3.38,1.16,5.68l1.11,5.49.89-5.49c.37-2.3.71-4.22,1.02-5.77l9.12-42.83h14.06l-16.67,67.97h-17.69Z"/>
      <path class="cls-1" d="m385.74,109.01V41.04h41.9v12.1h-28.21v15.27h24.95v11.55h-24.95v16.95h28.21v12.1h-41.9Z"/>
    </g>
  </g>
  <path class="cls-1" d="m147.62,49.53c-3.06,0-5.61-2.39-5.82-5.44,0-.13-.02-.26-.02-.4v-2.65h-58.29v2.65c0,3.22-2.62,5.84-5.84,5.84h-2.65v101.54h2.65c3.22,0,5.84,2.62,5.84,5.84v2.65h58.29v-2.65c0-3.1,2.43-5.66,5.52-5.83h0c.1,0,.21,0,.31,0h2.65V49.53h-2.65Zm-13.08,104.72c-.01-.09-.03-.18-.05-.28-.03-.2-.07-.4-.1-.6-.04-.26-.09-.51-.13-.77-.04-.2-.08-.41-.11-.61-.05-.25-.1-.5-.15-.75-.04-.2-.08-.41-.13-.61-.05-.25-.11-.5-.16-.74-.05-.2-.09-.41-.14-.61-.06-.25-.11-.49-.17-.74-.05-.2-.1-.41-.15-.61-.06-.25-.12-.49-.19-.73-.05-.2-.1-.41-.16-.61-.07-.24-.13-.49-.2-.73-.06-.2-.11-.4-.17-.6-.07-.25-.14-.49-.22-.74-.06-.2-.12-.39-.18-.59-.08-.25-.16-.5-.24-.74-.06-.19-.12-.38-.18-.57-.08-.25-.17-.51-.26-.76-.06-.18-.12-.37-.19-.55-.09-.27-.19-.53-.29-.8-.06-.17-.12-.33-.18-.5-.12-.32-.24-.64-.36-.96-.04-.11-.08-.22-.13-.33-.17-.43-.34-.85-.51-1.27-.05-.12-.1-.24-.15-.36-.13-.3-.25-.6-.38-.9-.07-.17-.15-.33-.22-.5-.11-.25-.22-.51-.34-.76-.08-.18-.17-.36-.25-.53-.11-.24-.22-.48-.33-.71-.09-.18-.18-.37-.27-.55-.11-.23-.22-.46-.34-.69-.09-.18-.19-.37-.28-.55-.11-.22-.23-.45-.35-.67-.1-.19-.2-.37-.3-.56-.12-.22-.24-.44-.36-.66-.1-.19-.21-.37-.31-.56-.12-.22-.24-.43-.37-.65-.11-.18-.21-.37-.32-.55-.13-.21-.25-.43-.38-.64-.11-.18-.22-.36-.33-.55-.13-.21-.26-.42-.39-.63-.11-.18-.23-.36-.34-.54-.13-.21-.27-.42-.4-.63-.12-.18-.23-.36-.35-.54-.14-.21-.28-.42-.42-.62-.12-.18-.24-.35-.36-.53-.14-.21-.29-.41-.43-.62-.12-.17-.24-.34-.36-.52-.15-.21-.3-.41-.45-.62-.12-.17-.24-.34-.37-.5-.15-.21-.31-.42-.47-.62-.12-.16-.25-.33-.37-.49-.16-.21-.33-.42-.49-.63-.12-.15-.24-.31-.37-.46-.18-.22-.36-.44-.53-.66-.12-.14-.23-.28-.35-.42-.2-.24-.41-.48-.61-.72-.1-.12-.19-.23-.29-.35-.3-.35-.61-.71-.92-1.05-.31-.35-.62-.69-.94-1.03-.11-.12-.22-.23-.32-.34-.21-.22-.42-.45-.63-.67-.13-.13-.26-.27-.39-.4-.19-.2-.39-.4-.58-.59-.14-.14-.28-.28-.42-.42-.19-.19-.37-.37-.56-.55-.15-.14-.3-.28-.45-.43-.18-.18-.37-.35-.56-.53-.15-.14-.31-.28-.46-.43-.18-.17-.37-.34-.56-.51-.16-.14-.32-.28-.48-.42-.19-.16-.37-.33-.56-.49-.16-.14-.33-.28-.49-.42-.19-.16-.37-.32-.56-.47-.17-.14-.33-.28-.5-.41-.19-.15-.38-.31-.56-.46-.17-.14-.34-.27-.51-.4-.19-.15-.38-.3-.57-.45-.17-.13-.34-.26-.51-.39-.19-.15-.39-.29-.58-.44-.17-.13-.35-.26-.52-.39-.19-.14-.39-.28-.59-.43-.18-.13-.35-.25-.53-.38-.2-.14-.4-.28-.6-.42-.18-.12-.35-.24-.53-.36-.2-.14-.4-.27-.61-.41-.18-.12-.35-.24-.53-.35-.21-.13-.41-.27-.62-.4-.18-.11-.36-.23-.53-.34-.21-.13-.42-.26-.63-.39-.18-.11-.36-.22-.54-.33-.21-.13-.43-.26-.65-.38-.18-.1-.35-.21-.53-.31-.22-.13-.45-.25-.67-.38-.17-.1-.35-.2-.52-.29-.24-.13-.47-.26-.71-.39-.16-.09-.33-.18-.49-.27-.27-.14-.54-.28-.82-.42-.13-.07-.26-.14-.4-.21-.41-.21-.81-.41-1.23-.61-.06-.03-.13-.06-.19-.09-.35-.17-.7-.33-1.05-.49-.15-.07-.3-.13-.45-.2-.27-.12-.54-.24-.8-.36-.17-.08-.34-.15-.52-.22-.25-.11-.5-.21-.75-.32-.18-.08-.36-.15-.55-.22-.24-.1-.48-.2-.73-.29-.19-.07-.38-.15-.56-.22-.24-.09-.48-.19-.72-.28-.19-.07-.39-.14-.58-.21-.24-.09-.48-.17-.71-.26-.2-.07-.39-.14-.59-.21-.24-.08-.47-.16-.71-.24-.2-.07-.4-.13-.6-.2-.24-.08-.47-.15-.71-.23-.2-.06-.4-.13-.61-.19-.24-.07-.48-.14-.72-.22-.2-.06-.41-.12-.61-.18-.13-.04-.26-.08-.39-.11v-11.46c3.06.45,6.11,1.09,9.08,1.91l.52.15c.37.1.73.21,1.09.32l.26.08c.46.14.93.29,1.38.44l.31.1c.45.15.89.3,1.34.46l.34.12c.44.16.87.32,1.31.48l.34.13c.43.17.86.33,1.29.51l.33.13c.43.18.86.36,1.29.54l.3.13c.44.19.88.39,1.31.59l.23.11c.45.21.91.42,1.36.64l.11.06c.91.44,1.84.92,2.76,1.42,2.03,1.1,4.02,2.3,5.93,3.58l.12.08c.39.26.78.53,1.17.8l.28.19c.36.25.71.51,1.07.77l.36.26c.34.25.67.5,1,.75l.4.31c.32.25.64.5.95.75.14.11.28.23.42.34.31.25.61.5.91.75.14.12.29.24.43.36.25.21.5.43.75.65l.13.11c.14.13.29.25.43.38.29.26.58.52.86.78.11.1.22.2.32.3l.1.09c.28.26.57.53.85.8.09.09.18.17.27.26l.14.13c.28.27.56.55.84.83l.37.38c.28.29.56.58.84.87l.31.33c.29.31.59.63.88.95l.13.15c.5.56,1,1.13,1.49,1.71,0,0,.01.02.02.02.49.58.97,1.17,1.45,1.76l.23.28c.21.26.41.53.61.79l.23.3c.08.1.16.2.23.31.19.25.37.5.55.75l.22.3c.09.13.18.25.28.38.18.26.36.52.55.78l.1.14c.12.18.25.35.37.53.18.27.36.54.55.82.15.22.29.44.43.65.17.27.35.54.52.81.14.23.29.46.43.69.17.27.33.54.49.81.14.24.28.48.42.71.16.27.31.54.47.81.14.24.28.49.41.74.15.27.3.54.44.81.14.25.27.51.4.76.14.27.28.54.42.81.12.23.23.47.35.7l.1.21c.11.23.22.45.33.68.11.23.22.46.32.69l.17.36c.09.19.17.37.26.56.1.22.19.44.29.66l.2.45c.07.17.15.34.22.52.1.24.2.49.3.73l.19.48c.06.15.12.29.18.44.21.55.42,1.09.63,1.64.03.09.07.19.1.28l.11.32c.13.37.26.73.39,1.1.05.15.1.3.15.45l.12.37c.1.3.2.59.29.9.06.18.11.36.16.54l.07.22c.1.32.2.65.29.97.05.19.1.37.16.56l.06.23c.09.32.18.64.26.96.06.21.11.43.16.64,0,.03.01.06.02.09l.02.07c.08.32.16.64.24.97.06.24.11.49.17.73l.02.08c.07.32.14.65.21.97.06.27.11.54.17.82.06.33.13.65.19.98.05.27.1.55.15.82.06.33.11.66.16.99.04.28.09.55.13.82.03.19.05.38.08.57-3.68,1.18-6.51,4.2-7.43,7.96h-2.26Zm-16.39,0c-.15-.56-.3-1.13-.46-1.69-.01-.04-.02-.07-.03-.11-.18-.62-.37-1.23-.57-1.84-.07-.21-.14-.41-.21-.61-.14-.41-.27-.81-.41-1.21-.09-.24-.18-.49-.27-.73-.13-.36-.27-.72-.41-1.08-.1-.26-.21-.51-.31-.76-.14-.34-.28-.68-.42-1.02-.11-.26-.23-.52-.34-.78-.15-.33-.29-.66-.44-.99-.12-.26-.25-.52-.37-.78-.15-.32-.31-.64-.47-.96-.13-.26-.26-.52-.4-.78-.16-.31-.33-.63-.49-.94-.14-.26-.28-.52-.42-.77-.17-.31-.35-.62-.52-.92-.15-.25-.29-.51-.44-.76-.18-.31-.37-.61-.55-.91-.15-.25-.31-.49-.46-.74-.19-.3-.39-.6-.59-.9-.16-.24-.31-.48-.48-.72-.21-.3-.42-.6-.63-.9-.16-.23-.32-.46-.48-.68-.22-.31-.46-.62-.69-.92-.16-.21-.31-.42-.47-.63-.26-.34-.53-.67-.79-1-.14-.17-.27-.35-.41-.52-.41-.5-.83-.99-1.25-1.48-.42-.49-.86-.97-1.29-1.44-.14-.15-.29-.3-.43-.46-.3-.32-.6-.63-.9-.94-.18-.18-.36-.36-.54-.54-.28-.28-.55-.55-.84-.82-.2-.19-.39-.37-.59-.55-.27-.26-.55-.51-.82-.76-.21-.19-.42-.37-.63-.55-.27-.24-.55-.48-.83-.72-.22-.18-.44-.36-.65-.54-.28-.23-.55-.46-.84-.68-.22-.18-.45-.36-.68-.53-.28-.22-.56-.44-.85-.65-.23-.17-.46-.34-.7-.51-.29-.21-.57-.42-.86-.62-.24-.17-.47-.33-.71-.5-.29-.2-.59-.4-.88-.6-.24-.16-.48-.32-.72-.47-.3-.19-.6-.38-.9-.57-.24-.15-.49-.3-.73-.45-.31-.19-.62-.37-.93-.55-.24-.14-.49-.28-.73-.42-.32-.18-.64-.35-.96-.53-.24-.13-.48-.26-.73-.39-.33-.17-.67-.34-1.01-.51-.24-.12-.47-.24-.71-.36-.36-.17-.71-.34-1.07-.51-.22-.1-.45-.21-.67-.31-.4-.18-.8-.35-1.21-.52-.19-.08-.37-.16-.56-.24-.02-.01-.05-.02-.07-.03v-11.83c25.23,7.65,44.37,29.28,48.85,55.26h-11.01Zm-29.66,0c-.98-4.02-4.15-7.19-8.17-8.17v-29.48c15.82,7.21,27.61,20.93,32.34,37.65h-24.17Zm56.49-97.83c-.22.04-.44.09-.66.14-.23.05-.45.09-.68.14-.33.07-.66.15-.98.23-.21.05-.42.1-.62.15-.37.09-.75.19-1.12.29-.16.04-.32.08-.47.13-.53.15-1.05.3-1.57.46-.13.04-.26.09-.4.13-.39.12-.78.25-1.16.38-.2.07-.4.14-.6.21-.32.11-.63.22-.94.34-.22.08-.44.17-.65.25-.29.11-.58.23-.87.34-.22.09-.45.18-.67.28-.28.12-.56.24-.84.36-.22.1-.45.2-.67.3-.27.12-.55.25-.82.38-.22.1-.44.21-.67.32-.27.13-.54.27-.81.4-.22.11-.44.22-.65.33-.27.14-.54.29-.81.43-.21.11-.42.23-.63.34-.28.15-.55.31-.82.47-.2.11-.39.23-.59.34-.3.18-.59.36-.89.54-.17.1-.34.2-.5.31-.45.29-.91.58-1.35.88-.08.05-.16.11-.24.17-.37.25-.74.5-1.1.76-.17.12-.33.24-.5.36-.27.2-.55.4-.82.6-.18.14-.36.28-.54.42-.25.19-.5.39-.75.58-.19.15-.37.3-.55.45-.24.19-.47.39-.71.59-.19.16-.37.31-.55.47-.23.2-.46.4-.69.6-.18.16-.36.32-.54.49-.23.21-.45.41-.67.62-.17.17-.35.33-.52.5-.22.22-.44.43-.66.65-.17.17-.33.33-.5.5-.22.23-.45.46-.67.7-.15.16-.31.32-.46.49-.24.26-.47.52-.7.78-.13.15-.26.29-.39.44-.31.36-.62.72-.92,1.08-.05.06-.1.11-.14.17-.35.42-.69.85-1.03,1.28-.11.14-.21.28-.32.42-.23.3-.45.59-.67.89-.13.17-.25.35-.38.52-.2.27-.39.54-.58.82-.13.19-.26.38-.39.57-.18.27-.36.53-.53.8-.13.2-.26.4-.39.6-.17.27-.34.53-.5.8-.13.21-.25.41-.37.62-.08.13-.16.26-.23.39-.21-.11-.43-.21-.65-.32l-.1-.05c-.48-.24-.97-.46-1.45-.69l-.25-.12c-.46-.21-.93-.42-1.4-.63l-.32-.14c-.46-.2-.92-.39-1.38-.58l-.35-.14c-.46-.19-.92-.37-1.38-.54l-.37-.14c-.47-.18-.93-.35-1.4-.51l-.36-.13c-.48-.17-.95-.33-1.43-.49l-.32-.11c8.21-17,24.23-29.2,42.78-32.55,1.22,3.57,4.22,6.32,7.89,7.23v1.91Zm0,71.58c-.1-.25-.19-.5-.29-.75-.07-.17-.14-.35-.21-.52l-.18-.45c-.11-.27-.22-.54-.33-.81-.08-.2-.17-.39-.25-.58l-.19-.44c-.11-.24-.21-.49-.32-.73-.09-.21-.19-.42-.29-.62l-.16-.35c-.12-.25-.23-.5-.35-.75-.12-.25-.24-.49-.36-.74l-.1-.21c-.13-.25-.25-.51-.38-.76-.15-.29-.3-.58-.45-.86-.14-.27-.28-.54-.43-.81-.16-.29-.31-.58-.47-.86-.15-.26-.29-.53-.44-.79-.16-.29-.33-.58-.5-.86-.15-.25-.3-.51-.45-.76-.17-.29-.35-.58-.52-.86-.15-.25-.3-.49-.46-.73-.18-.29-.37-.58-.55-.87-.15-.24-.31-.47-.46-.7-.19-.29-.39-.58-.58-.87-.13-.19-.27-.39-.4-.58l-.1-.14c-.19-.28-.39-.56-.58-.83-.1-.14-.21-.29-.31-.43l-.21-.29c-.2-.27-.39-.54-.59-.81-.09-.12-.18-.24-.27-.36l-.21-.28c-.22-.29-.44-.57-.66-.85-.05-.07-.1-.13-.16-.2l-.09-.11c-1.02-1.28-2.08-2.53-3.16-3.73l-.14-.16c-.31-.34-.62-.68-.94-1.02l-.33-.36c-.3-.31-.6-.62-.9-.93l-.14-.14c-.09-.09-.17-.18-.26-.26-.3-.3-.6-.59-.9-.89l-.13-.12c-.1-.1-.2-.2-.31-.3-.3-.29-.6-.57-.9-.86l-.1-.09c-.09-.09-.18-.17-.27-.25,4.78-8.07,12.17-14.46,20.8-18.03v48.7Zm-22.94-81.66c-.37.16-.73.32-1.1.49-.06.03-.13.06-.19.09-.56.26-1.11.52-1.66.8-.15.07-.29.15-.44.22-.44.22-.88.45-1.32.69-.12.07-.24.13-.37.19-.54.29-1.07.59-1.6.9-.11.06-.21.13-.32.19-.44.26-.88.52-1.31.79-.14.08-.27.17-.41.25-.52.33-1.05.67-1.56,1.01,0,0-.02.01-.03.02-.51.34-1,.69-1.5,1.04-.13.09-.25.18-.38.27-.43.31-.86.63-1.29.96-.07.06-.15.11-.22.16-.49.38-.98.76-1.46,1.16-.1.08-.21.17-.31.26-.4.33-.79.66-1.18,1-.1.09-.21.18-.31.27-.47.41-.93.83-1.39,1.25-.05.05-.1.1-.15.14-.41.38-.81.77-1.21,1.16-.11.11-.21.21-.32.32-.43.43-.85.85-1.26,1.29-.01.02-.03.03-.04.04-.43.46-.85.92-1.27,1.39-.1.11-.19.22-.29.33-.35.39-.69.79-1.03,1.19-.07.09-.15.18-.22.26-.4.48-.79.97-1.18,1.46-.07.09-.14.18-.21.27-.32.42-.64.84-.95,1.26-.09.12-.18.24-.27.36-.37.51-.73,1.02-1.09,1.54-.01.02-.02.03-.03.05-.34.5-.67,1.01-.99,1.52-.09.14-.17.27-.26.41-.29.46-.57.92-.85,1.39-.05.08-.09.16-.14.23-.32.54-.62,1.08-.92,1.63-.07.13-.14.26-.21.39-.24.45-.48.9-.71,1.35-.07.13-.14.27-.21.4-.26.52-.52,1.05-.77,1.59-.06-.02-.12-.03-.18-.04-.58-.14-1.16-.28-1.74-.41-.2-.04-.39-.09-.59-.13-.51-.11-1.02-.22-1.54-.32-.16-.03-.31-.06-.47-.09-.65-.13-1.31-.24-1.96-.35-.15-.02-.3-.05-.44-.07-.53-.09-1.06-.17-1.59-.24-.1-.01-.21-.03-.31-.05v-22.12c4.02-.98,7.19-4.15,8.17-8.17h33.55Zm22.94,27.28c-.07.03-.15.06-.22.08-.13.05-.27.1-.4.15-.22.08-.43.17-.65.25-.13.05-.27.11-.4.16-.22.09-.44.18-.66.27-.12.05-.25.1-.37.16-.24.11-.49.21-.73.32-.1.04-.19.09-.29.13-.34.15-.67.31-1,.47-.05.03-.1.05-.15.08-.28.14-.56.28-.84.42-.11.06-.22.12-.33.18-.22.11-.43.23-.65.35-.12.07-.25.14-.37.21-.2.11-.4.23-.6.34-.13.07-.25.15-.38.22-.2.12-.4.24-.6.36-.12.07-.24.14-.36.22-.21.13-.42.27-.64.4-.1.06-.2.13-.3.19-.31.2-.61.4-.91.61,0,0,0,0,0,0-.31.21-.61.42-.91.64-.1.07-.19.14-.28.21-.2.15-.41.3-.61.45-.11.08-.22.17-.33.25-.19.14-.37.28-.55.43-.11.09-.23.18-.34.27-.18.14-.36.29-.54.44-.11.09-.22.18-.33.27-.19.16-.37.31-.55.47-.1.08-.19.17-.29.25-.23.2-.46.41-.68.61-.05.04-.09.08-.14.13-.27.25-.54.5-.81.76-.07.07-.15.14-.22.21-.19.19-.38.38-.57.57-.09.1-.19.19-.28.29-.17.17-.33.34-.5.51-.1.1-.2.21-.29.31-.16.17-.32.34-.47.51-.1.11-.19.21-.29.32-.16.18-.32.36-.48.54-.09.1-.17.2-.26.3-.18.21-.36.43-.54.65-.06.07-.11.13-.17.2-.24.29-.47.58-.7.88-.04.05-.08.11-.12.16-.18.24-.37.48-.55.72-.07.1-.14.2-.22.3-.15.2-.29.41-.44.61-.08.11-.16.22-.23.34-.14.2-.27.4-.41.6-.08.11-.15.23-.23.34-.14.21-.27.41-.4.62-.07.11-.14.21-.2.32-.03.05-.07.1-.1.15-.07-.06-.15-.12-.22-.18-.34-.27-.68-.54-1.01-.8l-.43-.33c-.35-.27-.71-.54-1.07-.81l-.38-.28c-.38-.28-.76-.55-1.14-.82l-.3-.21c-.41-.29-.83-.58-1.25-.86l-.13-.08c-1.31-.88-2.65-1.71-4-2.51,7.58-12.85,20.3-22.01,34.82-25.11v11.78Z"/>
</svg>