<?xml version="1.0" encoding="UTF-8"?>
<svg xmlns="http://www.w3.org/2000/svg" viewBox="0 0 500 500">
  <defs>
    <style>
      .cls-1 {
        fill: #71f1a1;
      }

      .cls-1, .cls-2 {
        stroke-width: 0px;
      }

      .cls-2 {
        fill: #2d2d2d;
      }
    </style>
  </defs>
  <g id="background">
    <rect class="cls-2" y="0" width="500" height="500"/>
  </g>
  <g id="_3_verticle" data-name="3_verticle">
    <g>
      <path class="cls-1" d="m295.79,93.72c-4,0-7.35-3.13-7.62-7.12-.01-.17-.02-.35-.02-.52v-3.47h-76.3v3.47c0,4.21-3.43,7.64-7.64,7.64h-3.47v132.91h3.47c4.21,0,7.64,3.43,7.64,7.64v3.47h76.3v-3.47c0-4.06,3.17-7.41,7.23-7.63h0c.14,0,.27-.01.41-.01h3.47V93.72h-3.47Zm-17.13,137.07c-.02-.12-.04-.24-.06-.36-.04-.26-.09-.53-.13-.79-.06-.33-.12-.67-.18-1-.05-.27-.1-.53-.15-.8-.06-.33-.13-.66-.19-.99-.05-.27-.11-.53-.16-.8-.07-.33-.14-.65-.21-.98-.06-.27-.12-.54-.18-.8-.07-.32-.15-.65-.23-.97-.06-.27-.13-.53-.19-.8-.08-.32-.16-.64-.24-.96-.07-.27-.14-.53-.21-.8-.09-.32-.17-.64-.26-.96-.07-.26-.15-.52-.22-.79-.09-.32-.19-.64-.28-.96-.08-.26-.15-.51-.23-.77-.1-.33-.2-.65-.31-.97-.08-.25-.16-.5-.24-.75-.11-.33-.22-.66-.33-.99-.08-.24-.16-.48-.24-.72-.12-.35-.25-.7-.37-1.05-.08-.22-.15-.43-.23-.65-.15-.42-.31-.83-.47-1.25-.06-.14-.11-.29-.16-.43-.22-.56-.44-1.11-.67-1.67-.07-.16-.13-.32-.2-.47-.17-.4-.33-.79-.5-1.18-.09-.22-.19-.43-.29-.65-.15-.33-.29-.66-.44-.99-.11-.23-.22-.47-.33-.7-.14-.31-.29-.62-.44-.93-.11-.24-.23-.48-.35-.72-.15-.3-.29-.6-.44-.9-.12-.24-.25-.48-.37-.72-.15-.29-.3-.59-.45-.88-.13-.24-.26-.49-.39-.73-.15-.29-.31-.58-.47-.86-.13-.24-.27-.49-.4-.73-.16-.28-.32-.57-.48-.85-.14-.24-.28-.48-.42-.72-.16-.28-.33-.56-.5-.84-.14-.24-.29-.48-.43-.71-.17-.28-.34-.55-.51-.83-.15-.24-.3-.47-.45-.71-.17-.27-.35-.55-.53-.82-.15-.23-.3-.47-.46-.7-.18-.27-.36-.54-.54-.82-.16-.23-.31-.46-.47-.69-.19-.27-.38-.54-.56-.81-.16-.23-.32-.45-.48-.68-.19-.27-.39-.54-.59-.81-.16-.22-.32-.44-.48-.66-.2-.27-.41-.54-.61-.82-.16-.21-.32-.43-.48-.64-.21-.28-.43-.55-.65-.83-.16-.2-.32-.41-.48-.61-.23-.29-.46-.57-.7-.86-.15-.19-.3-.37-.45-.56-.26-.32-.53-.63-.8-.95-.13-.15-.25-.3-.38-.45-.4-.46-.8-.92-1.21-1.38-.41-.45-.82-.9-1.23-1.35-.14-.15-.28-.3-.42-.45-.27-.29-.55-.59-.83-.88-.17-.18-.34-.35-.51-.52-.25-.26-.51-.52-.76-.78-.18-.18-.37-.37-.55-.55-.25-.24-.49-.49-.74-.73-.19-.19-.39-.37-.59-.56-.24-.23-.48-.46-.73-.69-.2-.19-.4-.37-.61-.56-.24-.22-.48-.44-.73-.66-.21-.19-.42-.37-.62-.55-.24-.21-.48-.43-.73-.64-.21-.18-.43-.37-.64-.55-.24-.21-.49-.41-.73-.62-.22-.18-.44-.36-.65-.54-.25-.2-.49-.4-.74-.6-.22-.18-.44-.35-.66-.53-.25-.2-.5-.39-.75-.59-.22-.17-.45-.35-.67-.52-.25-.19-.51-.38-.76-.57-.23-.17-.45-.34-.68-.51-.25-.19-.51-.37-.77-.56-.23-.17-.46-.33-.69-.49-.26-.18-.52-.36-.78-.54-.23-.16-.46-.32-.7-.48-.26-.18-.53-.36-.8-.53-.23-.15-.46-.31-.7-.46-.27-.18-.54-.35-.81-.52-.23-.15-.47-.3-.7-.45-.27-.17-.55-.34-.83-.51-.23-.14-.47-.29-.7-.43-.28-.17-.56-.34-.85-.5-.23-.14-.46-.27-.7-.41-.29-.17-.58-.33-.88-.5-.23-.13-.45-.26-.68-.38-.31-.17-.62-.34-.93-.5-.22-.12-.43-.23-.64-.35-.35-.19-.71-.37-1.07-.55-.17-.09-.35-.18-.52-.27-.53-.27-1.07-.53-1.6-.79-.08-.04-.17-.08-.25-.12-.46-.22-.91-.44-1.37-.65-.19-.09-.39-.18-.58-.26-.35-.16-.7-.32-1.05-.47-.22-.1-.45-.19-.67-.29-.33-.14-.65-.28-.98-.42-.24-.1-.48-.19-.71-.29-.32-.13-.63-.26-.95-.39-.25-.1-.49-.19-.74-.29-.31-.12-.63-.24-.94-.36-.25-.09-.51-.19-.76-.28-.31-.11-.62-.23-.93-.34-.26-.09-.52-.18-.77-.27-.31-.11-.62-.21-.93-.32-.26-.09-.52-.17-.79-.26-.31-.1-.62-.2-.93-.3-.26-.08-.53-.16-.79-.24-.31-.1-.63-.19-.94-.28-.27-.08-.53-.15-.8-.23-.17-.05-.34-.1-.5-.15v-15.01c4.01.59,7.99,1.42,11.89,2.49l.69.19c.48.14.96.27,1.43.41l.34.1c.61.18,1.21.38,1.81.57l.41.13c.59.19,1.17.39,1.75.6l.44.16c.57.2,1.14.41,1.71.63l.45.17c.57.22,1.13.44,1.69.67l.43.18c.57.23,1.13.47,1.69.71l.39.17c.57.25,1.15.5,1.72.77l.3.14c.59.28,1.19.56,1.78.84l.15.07c1.19.58,2.4,1.21,3.61,1.86,2.65,1.44,5.26,3.01,7.77,4.68l.15.1c.51.34,1.02.7,1.53,1.05l.37.25c.47.33.93.67,1.39,1l.47.34c.44.32.88.65,1.31.98l.52.4c.42.32.83.65,1.24.98.18.15.37.3.55.44.4.33.8.66,1.2.99.19.16.37.32.56.48.33.28.66.56.99.85l.17.15c.19.17.38.33.56.5.38.34.75.68,1.13,1.02.14.13.28.26.42.39l.13.12c.37.35.74.69,1.11,1.05.12.11.23.23.35.34l.18.17c.37.36.73.72,1.1,1.08l.49.5c.37.38.74.76,1.1,1.14l.41.44c.39.41.77.82,1.15,1.24l.17.19c.66.73,1.31,1.48,1.95,2.24,0,.01.02.02.03.03.64.76,1.27,1.53,1.89,2.3l.3.37c.27.34.53.69.8,1.03l.3.39c.1.13.2.27.31.4.24.32.48.65.72.98l.28.39c.12.16.24.33.36.5.24.34.48.68.71,1.02l.13.18c.16.23.32.46.48.7.24.35.48.71.71,1.07.19.29.38.57.56.86.23.35.45.71.68,1.06.19.3.38.6.56.9.22.35.43.71.64,1.06.19.31.37.62.55.93.21.35.41.7.61,1.06.18.32.36.64.54.96.19.35.39.7.58,1.06.18.33.35.66.52.99.18.35.37.7.55,1.06.15.3.31.61.46.92l.13.27c.15.3.29.59.43.89.14.3.28.6.42.9l.22.47c.11.24.23.49.34.73.13.29.26.58.38.87l.26.59c.1.22.2.45.29.68.13.32.26.64.39.96l.25.62c.08.19.16.38.23.58.28.71.55,1.43.82,2.15.04.12.09.25.13.37l.15.41c.17.48.34.96.51,1.43.07.19.13.39.19.59l.16.49c.13.39.26.78.38,1.17.07.23.14.47.21.7l.09.29c.13.42.26.85.38,1.27.07.24.14.49.2.73l.08.3c.12.42.23.84.34,1.26.07.28.14.56.21.84,0,.04.02.08.03.12l.02.09c.11.42.21.84.31,1.27.08.32.15.64.22.96l.02.1c.09.42.19.85.28,1.27.07.36.15.71.22,1.07.08.43.17.85.25,1.28.07.36.13.72.19,1.08.08.43.15.86.22,1.3.06.36.11.72.17,1.08.04.25.07.49.1.74-4.82,1.54-8.52,5.5-9.72,10.42h-2.95Zm-21.46,0c-.19-.74-.4-1.48-.61-2.21-.01-.05-.02-.09-.04-.14-.23-.81-.48-1.61-.74-2.41-.09-.27-.18-.53-.27-.8-.18-.53-.35-1.06-.54-1.59-.11-.32-.24-.63-.35-.95-.18-.47-.35-.95-.53-1.41-.13-.33-.27-.67-.4-1-.18-.45-.36-.9-.55-1.34-.15-.34-.3-.68-.45-1.02-.19-.43-.38-.86-.58-1.29-.16-.34-.32-.68-.49-1.03-.2-.42-.4-.84-.61-1.26-.17-.34-.34-.68-.52-1.02-.21-.41-.43-.82-.65-1.23-.18-.34-.37-.67-.55-1.01-.22-.4-.45-.81-.68-1.21-.19-.33-.38-.66-.58-.99-.24-.4-.48-.8-.72-1.19-.2-.32-.4-.65-.6-.97-.25-.4-.51-.79-.77-1.18-.21-.31-.41-.63-.62-.94-.27-.4-.55-.79-.82-1.18-.21-.3-.42-.6-.63-.89-.29-.41-.6-.81-.9-1.21-.21-.27-.41-.55-.62-.82-.34-.44-.69-.88-1.04-1.31-.18-.23-.36-.45-.54-.68-.54-.65-1.08-1.3-1.64-1.94-.55-.64-1.12-1.26-1.69-1.88-.19-.2-.38-.4-.57-.6-.39-.41-.78-.83-1.18-1.23-.23-.24-.47-.47-.71-.7-.36-.36-.72-.72-1.09-1.08-.26-.24-.52-.48-.77-.72-.36-.33-.71-.67-1.08-1-.27-.24-.55-.48-.82-.72-.36-.32-.72-.63-1.08-.94-.28-.24-.57-.48-.86-.71-.36-.3-.73-.6-1.09-.89-.29-.23-.59-.47-.89-.7-.37-.29-.74-.57-1.11-.85-.3-.23-.61-.45-.91-.67-.37-.27-.75-.55-1.13-.81-.31-.22-.62-.43-.93-.65-.38-.26-.77-.52-1.16-.78-.31-.21-.63-.42-.95-.62-.39-.25-.79-.5-1.18-.75-.32-.2-.64-.4-.96-.59-.4-.24-.81-.48-1.22-.72-.32-.19-.64-.37-.96-.55-.42-.24-.84-.46-1.26-.69-.32-.17-.63-.35-.95-.51-.44-.23-.88-.45-1.32-.67-.31-.16-.62-.31-.93-.47-.47-.23-.93-.44-1.4-.66-.29-.14-.58-.28-.88-.41-.52-.24-1.05-.46-1.58-.68-.24-.1-.49-.21-.73-.32-.03-.01-.06-.03-.1-.04v-15.49c33.03,10.01,58.07,38.32,63.94,72.34h-14.41Zm-38.83,0c-1.29-5.26-5.44-9.41-10.7-10.7v-38.59c20.71,9.44,36.14,27.39,42.33,49.28h-31.64Zm73.94-128.05c-.29.06-.57.12-.86.18-.3.06-.59.12-.89.18-.43.09-.86.2-1.29.3-.27.06-.55.13-.82.19-.49.12-.98.25-1.46.38-.21.06-.42.11-.62.16-.69.19-1.37.39-2.05.6-.17.05-.35.11-.52.17-.51.16-1.02.32-1.52.5-.26.09-.52.18-.78.28-.41.15-.83.29-1.23.44-.29.11-.57.22-.85.33-.38.15-.76.29-1.14.45-.29.12-.59.24-.88.36-.37.15-.73.31-1.1.47-.29.13-.59.26-.88.39-.36.16-.72.33-1.07.49-.29.14-.58.28-.87.42-.35.17-.71.35-1.06.53-.29.14-.57.29-.85.44-.35.18-.71.37-1.06.56-.28.15-.55.3-.82.45-.36.2-.72.41-1.08.62-.26.15-.52.29-.77.45-.39.23-.78.47-1.16.71-.22.13-.44.27-.66.4-.6.38-1.19.76-1.77,1.15-.11.07-.21.15-.31.22-.48.33-.96.66-1.44,1-.22.16-.43.32-.65.47-.36.26-.72.52-1.07.79-.24.18-.47.36-.71.55-.33.25-.65.51-.98.76-.24.19-.48.39-.72.59-.31.25-.62.51-.93.77-.24.2-.48.41-.72.62-.3.26-.6.52-.9.79-.24.21-.47.42-.71.64-.29.27-.59.54-.88.82-.23.22-.46.43-.68.65-.29.28-.58.57-.87.86-.22.22-.44.43-.65.66-.29.3-.58.61-.87.91-.2.21-.41.42-.6.64-.31.34-.62.68-.92,1.02-.17.19-.34.38-.51.57-.41.47-.81.94-1.2,1.41-.06.07-.13.15-.19.22-.46.55-.9,1.11-1.34,1.67-.14.18-.28.37-.42.55-.3.39-.59.77-.88,1.17-.17.23-.33.46-.49.69-.26.36-.51.71-.76,1.07-.17.25-.34.5-.51.75-.24.35-.47.7-.7,1.05-.17.26-.34.52-.5.79-.22.35-.44.7-.66,1.05-.16.27-.33.54-.49.81-.1.17-.21.34-.31.51-.28-.14-.56-.28-.85-.42l-.13-.06c-.63-.31-1.26-.61-1.9-.9l-.33-.15c-.61-.28-1.22-.55-1.83-.82l-.42-.18c-.6-.26-1.21-.51-1.81-.76l-.46-.19c-.6-.24-1.21-.48-1.81-.71l-.48-.18c-.61-.23-1.22-.45-1.83-.67l-.47-.17c-.62-.22-1.25-.43-1.88-.64l-.42-.14c10.74-22.25,31.71-38.22,55.99-42.6,1.6,4.68,5.52,8.27,10.33,9.46v2.5Zm0,93.69c-.13-.33-.25-.65-.38-.98-.09-.23-.18-.45-.27-.68l-.24-.58c-.14-.35-.29-.71-.43-1.05-.11-.26-.22-.51-.33-.76l-.25-.57c-.14-.32-.27-.63-.42-.95-.12-.27-.25-.54-.37-.82l-.21-.46c-.15-.33-.3-.65-.46-.98-.15-.32-.31-.65-.47-.97l-.13-.27c-.16-.33-.33-.66-.49-.99-.19-.38-.39-.75-.58-1.13-.19-.36-.37-.71-.56-1.07-.2-.38-.41-.75-.62-1.13-.19-.35-.38-.69-.58-1.03-.21-.38-.43-.75-.65-1.13-.19-.33-.39-.67-.59-1-.23-.38-.45-.75-.69-1.13-.2-.32-.4-.64-.6-.96-.24-.38-.48-.76-.72-1.14-.2-.31-.4-.62-.61-.92-.25-.38-.51-.76-.76-1.14-.17-.26-.35-.51-.53-.76l-.12-.18c-.25-.36-.51-.73-.77-1.09-.13-.19-.27-.37-.41-.56l-.28-.38c-.26-.35-.52-.71-.78-1.06-.12-.16-.24-.31-.36-.47l-.28-.37c-.29-.38-.57-.75-.86-1.12-.07-.09-.14-.17-.2-.26l-.11-.14c-1.33-1.67-2.72-3.32-4.14-4.89l-.19-.21c-.41-.45-.82-.89-1.23-1.33l-.43-.47c-.39-.41-.78-.81-1.18-1.22l-.18-.19c-.11-.12-.23-.23-.34-.35-.39-.39-.78-.78-1.17-1.16l-.17-.16c-.13-.13-.27-.26-.4-.39-.39-.38-.79-.75-1.18-1.12l-.13-.12c-.12-.11-.24-.22-.36-.33,6.26-10.57,15.92-18.93,27.23-23.6v63.74Zm-30.03-106.89c-.48.21-.96.43-1.43.64-.08.04-.17.07-.25.11-.73.34-1.45.68-2.17,1.04-.19.09-.38.19-.57.29-.58.29-1.16.59-1.73.9-.16.09-.32.17-.48.26-.71.38-1.4.78-2.1,1.18-.14.08-.28.16-.42.25-.58.34-1.15.68-1.71,1.03-.18.11-.35.22-.53.33-.69.43-1.37.87-2.04,1.32-.01,0-.02.02-.03.02-.66.44-1.31.9-1.96,1.36-.17.12-.33.24-.5.36-.57.41-1.13.83-1.69,1.25-.09.07-.19.14-.28.21-.64.5-1.28,1-1.91,1.51-.14.11-.27.22-.41.34-.52.43-1.03.86-1.54,1.3-.14.12-.27.23-.41.35-.61.54-1.22,1.09-1.82,1.64-.07.06-.13.12-.2.19-.53.5-1.06,1.01-1.58,1.52-.14.14-.28.28-.42.42-.56.56-1.11,1.12-1.65,1.69-.02.02-.04.04-.06.06-.56.6-1.12,1.21-1.67,1.82-.13.14-.25.29-.38.43-.45.52-.9,1.04-1.34,1.56-.1.12-.2.23-.29.35-.52.63-1.04,1.27-1.54,1.91-.09.12-.18.24-.27.35-.42.54-.83,1.09-1.24,1.65-.12.16-.23.32-.35.48-.48.67-.96,1.34-1.42,2.02-.02.02-.03.05-.04.07-.44.65-.88,1.32-1.3,1.98-.11.18-.22.35-.34.53-.38.6-.75,1.21-1.11,1.82-.06.1-.12.2-.18.31-.41.71-.82,1.42-1.21,2.14-.09.17-.18.34-.28.52-.31.58-.62,1.17-.92,1.77-.09.18-.18.35-.27.53-.34.69-.68,1.38-1,2.08-.08-.02-.16-.04-.23-.06-.76-.19-1.52-.37-2.28-.54-.26-.06-.51-.11-.77-.17-.67-.15-1.34-.29-2.01-.42-.21-.04-.41-.08-.62-.12-.86-.16-1.71-.32-2.57-.46-.19-.03-.39-.06-.58-.09-.69-.11-1.38-.22-2.08-.31-.14-.02-.27-.04-.41-.06v-28.95c5.26-1.29,9.41-5.44,10.7-10.7h43.91Zm30.03,35.7c-.1.03-.19.07-.29.11-.18.06-.35.13-.52.2-.28.11-.57.22-.85.33-.18.07-.35.14-.53.21-.29.12-.57.24-.86.36-.16.07-.33.14-.49.21-.32.14-.64.28-.95.42-.13.06-.25.11-.38.17-.44.2-.88.41-1.31.62-.07.03-.13.07-.2.1-.37.18-.73.36-1.1.55-.15.08-.29.15-.44.23-.28.15-.57.3-.85.45-.16.09-.33.18-.49.27-.26.15-.53.29-.79.45-.17.1-.33.19-.49.29-.26.15-.52.31-.78.47-.16.1-.31.19-.47.29-.28.17-.56.35-.83.53-.13.08-.26.17-.4.25-.4.26-.8.52-1.19.79,0,0,0,0-.01,0-.4.27-.79.55-1.19.83-.12.09-.25.18-.37.27-.27.19-.54.39-.8.59-.14.11-.29.22-.43.33-.24.19-.48.37-.72.56-.15.12-.3.24-.45.35-.24.19-.47.38-.7.57-.14.12-.29.24-.43.36-.24.2-.48.41-.72.62-.13.11-.25.22-.38.33-.3.26-.6.53-.89.8-.06.06-.12.11-.19.17-.36.33-.71.66-1.06,1-.1.09-.19.19-.29.28-.25.25-.5.49-.75.74-.12.12-.25.25-.37.38-.22.22-.43.45-.65.67-.13.14-.26.27-.38.41-.21.22-.41.45-.62.67-.12.14-.25.28-.37.41-.21.24-.42.47-.62.71-.11.13-.22.26-.34.39-.24.28-.48.57-.71.85-.07.09-.15.18-.22.27-.31.38-.61.76-.91,1.15-.06.07-.11.14-.16.21-.24.31-.48.63-.72.95-.1.13-.19.26-.28.39-.19.26-.38.53-.57.8-.1.15-.2.29-.31.44-.18.26-.36.52-.53.78-.1.15-.2.3-.3.45-.18.27-.35.54-.53.81-.09.14-.18.28-.27.42-.04.07-.09.13-.13.2-.1-.08-.19-.16-.29-.24-.44-.35-.88-.7-1.33-1.05l-.56-.43c-.46-.36-.93-.71-1.4-1.05l-.5-.37c-.5-.36-.99-.72-1.49-1.07l-.4-.27c-.54-.38-1.09-.75-1.64-1.13l-.17-.11c-1.72-1.15-3.47-2.24-5.24-3.28,9.93-16.82,26.57-28.81,45.57-32.86v15.42Z"/>
      <g>
        <g>
          <rect class="cls-1" x="75" y="370.87" width="8.3" height="42.48"/>
          <polygon class="cls-1" points="116.95 401.97 101.85 370.87 92.06 370.87 92.06 413.32 99.71 413.32 99.71 382.7 114.76 413.32 124.6 413.32 124.6 370.87 116.95 370.87 116.95 401.97"/>
          <polygon class="cls-1" points="148 399.21 138.98 370.87 130.74 370.87 144.88 413.35 151.13 413.35 165.27 370.87 157.03 370.87 148 399.21"/>
          <polygon class="cls-1" points="173.42 370.87 170.53 370.87 170.53 413.35 173.42 413.35 178.53 413.35 198.98 413.35 198.98 405.63 178.53 405.63 178.53 396.11 195.77 396.11 195.77 388.4 178.53 388.4 178.53 378.58 198.98 378.58 198.98 370.87 178.53 370.87 173.42 370.87"/>
          <path class="cls-1" d="m231.41,391.46c-1.34-.86-2.82-1.51-4.44-1.97-1.62-.46-3.24-.84-4.88-1.15-1.48-.29-2.86-.61-4.15-.95-1.29-.34-2.33-.86-3.13-1.56-.8-.7-1.2-1.73-1.2-3.1v-.03c0-1.46.67-2.6,2.02-3.4,1.34-.81,3.24-1.21,5.7-1.21,1.64,0,3.34.31,5.13.92,1.78.61,3.49,1.5,5.13,2.64l3.39-6.78c-2.04-1.42-4.26-2.52-6.63-3.29-2.38-.77-4.71-1.15-7.01-1.15-4.99,0-8.84,1.13-11.57,3.4-2.73,2.27-4.09,5.48-4.09,9.63v.03c0,2.57.43,4.63,1.3,6.16.87,1.54,2.01,2.72,3.43,3.55,1.42.83,2.98,1.43,4.67,1.81,1.69.38,3.37.7,5.02.95,1.38.21,2.66.48,3.84.79,1.18.31,2.13.79,2.85,1.45.72.65,1.08,1.59,1.08,2.82v.03c0,1.62-.72,2.87-2.16,3.75-1.44.89-3.47,1.33-6.08,1.33-2.26,0-4.46-.36-6.6-1.09-2.14-.73-4.03-1.77-5.67-3.11l-3.71,6.6c1.36,1.11,2.89,2.06,4.59,2.85,1.69.79,3.51,1.39,5.45,1.8s3.92.61,5.95.61c5.14,0,9.12-1.12,11.95-3.37,2.82-2.25,4.24-5.42,4.24-9.51v-.06c0-2.4-.4-4.34-1.2-5.84-.8-1.5-1.87-2.68-3.21-3.53Z"/>
          <polygon class="cls-1" points="237.28 378.58 248.85 378.58 248.85 413.35 256.85 413.35 256.85 378.58 268.42 378.58 268.42 370.87 237.28 370.87 237.28 378.58"/>
          <polygon class="cls-1" points="291.73 399.5 283.64 370.87 273.09 370.87 273.09 413.35 280.37 413.35 280.37 383.75 288.2 408.61 295.27 408.61 303.09 383.18 303.09 413.35 310.37 413.35 310.37 370.87 299.82 370.87 291.73 399.5"/>
          <polygon class="cls-1" points="322.61 370.87 319.72 370.87 319.72 413.35 322.61 413.35 327.72 413.35 348.17 413.35 348.17 405.63 327.72 405.63 327.72 396.11 344.96 396.11 344.96 388.4 327.72 388.4 327.72 378.58 348.17 378.58 348.17 370.87 327.72 370.87 322.61 370.87"/>
          <polygon class="cls-1" points="380.36 401.97 365.26 370.87 355.47 370.87 355.47 413.32 363.13 413.32 363.13 382.7 378.17 413.32 388.02 413.32 388.02 370.87 380.36 370.87 380.36 401.97"/>
          <polygon class="cls-1" points="425 370.87 393.86 370.87 393.86 378.58 405.43 378.58 405.43 413.35 413.43 413.35 413.43 378.58 425 378.58 425 370.87"/>
        </g>
        <g>
          <path class="cls-1" d="m97.41,347.59v-72.06h-22.41v-6.26c5.57,0,10.09-4.52,10.09-10.09h52.88v16.35h-22.41v72.06h-18.17Z"/>
          <path class="cls-1" d="m150.81,347.59v-88.41h28.34c6.3,0,11.75,1.09,16.35,3.27,4.6,2.18,8.17,5.29,10.72,9.33,2.54,4.04,3.82,8.8,3.82,14.29s-1.39,10.86-4.18,15.38c-2.79,4.52-6.56,7.79-11.32,9.81l16.71,36.33h-19.74l-14.29-33.43h-8.48v33.43h-17.92Zm17.92-49.17h10.42c4.04,0,7.16-1.01,9.39-3.03,2.22-2.02,3.33-4.84,3.33-8.48s-1.11-6.74-3.33-8.84c-2.22-2.1-5.35-3.15-9.39-3.15h-10.42v23.5Z"/>
          <path class="cls-1" d="m251.82,348.8c-8.88,0-15.95-2.5-21.19-7.51-5.25-5-7.87-11.79-7.87-20.35v-35.12c0-8.64,2.62-15.44,7.87-20.41,5.25-4.97,12.31-7.45,21.19-7.45s15.94,2.48,21.19,7.45c5.25,4.97,7.87,11.77,7.87,20.41v35.12c0,8.56-2.62,15.34-7.87,20.35-5.25,5.01-12.31,7.51-21.19,7.51Zm0-15.74c3.63,0,6.36-.95,8.17-2.85,1.82-1.9,2.72-4.58,2.72-8.05v-37.54c0-3.55-.89-6.26-2.66-8.11-1.78-1.86-4.52-2.79-8.24-2.79s-6.46.93-8.24,2.79c-1.78,1.86-2.66,4.56-2.66,8.11v37.54c0,3.47.91,6.16,2.72,8.05,1.82,1.9,4.54,2.85,8.17,2.85Z"/>
          <path class="cls-1" d="m313.1,347.59l-21.92-88.41h18.77l12.23,55.83c.4,1.94.91,4.4,1.51,7.39l1.45,7.15,1.16-7.15c.48-2.99.93-5.49,1.33-7.51l11.87-55.71h18.29l-21.68,88.41h-23.01Z"/>
          <path class="cls-1" d="m370.5,347.59v-88.41h54.5v15.74h-36.7v19.86h32.46v15.02h-32.46v22.04h36.7v15.74h-54.5Z"/>
        </g>
      </g>
    </g>
  </g>
</svg>