<?xml version="1.0" encoding="UTF-8"?>
<svg id="_4_brandmark" data-name="4_brandmark" xmlns="http://www.w3.org/2000/svg" viewBox="0 0 500 500">
  <defs>
    <style>
      .cls-1 {
        fill: #2d4c3c;
        stroke-width: 0px;
      }
    </style>
  </defs>
  <path class="cls-1" d="m348.88,106.5c-8.64,0-15.87-6.75-16.46-15.37-.03-.37-.04-.75-.04-1.13v-7.5h-164.76v7.5c0,9.1-7.4,16.5-16.5,16.5h-7.5v287h7.5c9.1,0,16.5,7.4,16.5,16.5v7.5h164.76v-7.5c0-8.77,6.86-16,15.61-16.47h0c.29-.02.59-.03.88-.03h7.5V106.5h-7.5Zm-36.98,296c-.04-.26-.09-.52-.13-.78-.09-.57-.19-1.14-.29-1.71-.12-.72-.25-1.45-.38-2.17-.1-.58-.21-1.15-.32-1.73-.14-.71-.27-1.42-.42-2.13-.12-.58-.23-1.16-.36-1.73-.15-.7-.3-1.4-.45-2.11-.13-.58-.26-1.16-.39-1.73-.16-.7-.32-1.39-.49-2.09-.14-.58-.28-1.15-.42-1.72-.17-.69-.35-1.38-.53-2.07-.15-.57-.3-1.15-.45-1.72-.18-.69-.38-1.38-.57-2.07-.16-.57-.31-1.13-.48-1.7-.2-.69-.41-1.39-.61-2.08-.17-.55-.33-1.11-.5-1.66-.22-.7-.44-1.4-.66-2.1-.17-.54-.34-1.08-.52-1.61-.24-.72-.48-1.43-.72-2.14-.18-.52-.35-1.03-.53-1.55-.26-.76-.54-1.51-.81-2.26-.17-.47-.33-.94-.5-1.4-.33-.9-.68-1.8-1.02-2.7-.12-.31-.23-.62-.36-.94-.47-1.2-.95-2.41-1.44-3.6-.14-.34-.29-.68-.43-1.02-.36-.85-.71-1.71-1.08-2.56-.2-.47-.42-.94-.62-1.41-.32-.72-.63-1.43-.96-2.15-.23-.51-.47-1.01-.7-1.51-.31-.67-.62-1.34-.94-2.01-.25-.52-.5-1.03-.75-1.55-.32-.65-.63-1.3-.96-1.95-.26-.52-.53-1.04-.8-1.56-.32-.64-.65-1.27-.98-1.9-.28-.53-.56-1.05-.84-1.57-.33-.62-.67-1.24-1-1.86-.29-.53-.58-1.05-.87-1.57-.34-.61-.69-1.22-1.03-1.83-.3-.52-.6-1.04-.9-1.56-.35-.61-.71-1.21-1.07-1.82-.31-.52-.62-1.03-.93-1.54-.36-.6-.73-1.2-1.1-1.79-.32-.51-.64-1.02-.96-1.53-.38-.59-.75-1.18-1.14-1.77-.33-.51-.66-1.01-.99-1.51-.39-.59-.78-1.18-1.18-1.76-.33-.5-.67-.99-1.01-1.49-.4-.59-.81-1.17-1.22-1.75-.34-.49-.68-.97-1.03-1.46-.42-.59-.84-1.17-1.27-1.75-.35-.48-.69-.95-1.04-1.43-.44-.59-.88-1.17-1.33-1.76-.35-.46-.69-.92-1.04-1.37-.46-.6-.93-1.19-1.4-1.79-.34-.44-.69-.88-1.03-1.31-.5-.62-1-1.24-1.51-1.86-.33-.4-.65-.8-.98-1.2-.57-.69-1.15-1.36-1.73-2.04-.28-.33-.55-.65-.83-.98-.86-1-1.73-1.99-2.61-2.98-.88-.98-1.76-1.95-2.65-2.91-.3-.33-.61-.65-.92-.97-.59-.63-1.19-1.27-1.79-1.89-.36-.38-.73-.75-1.1-1.13-.55-.56-1.09-1.12-1.65-1.68-.4-.4-.8-.79-1.2-1.18-.53-.52-1.06-1.05-1.59-1.57-.42-.41-.84-.8-1.26-1.21-.52-.5-1.04-1-1.57-1.49-.43-.41-.87-.81-1.31-1.21-.52-.48-1.04-.96-1.57-1.43-.45-.4-.9-.8-1.35-1.2-.52-.46-1.05-.93-1.57-1.38-.46-.4-.92-.79-1.38-1.19-.53-.45-1.05-.9-1.58-1.34-.47-.39-.94-.78-1.41-1.17-.53-.44-1.06-.87-1.6-1.3-.48-.38-.95-.76-1.43-1.14-.54-.43-1.08-.85-1.62-1.27-.48-.37-.96-.75-1.45-1.11-.54-.42-1.09-.83-1.64-1.24-.49-.37-.98-.73-1.47-1.09-.55-.4-1.1-.8-1.66-1.2-.5-.36-.99-.71-1.49-1.07-.56-.39-1.12-.79-1.68-1.17-.5-.35-1-.69-1.5-1.03-.57-.39-1.14-.77-1.72-1.15-.5-.33-1-.67-1.5-1-.58-.38-1.17-.75-1.75-1.13-.5-.32-1.01-.64-1.51-.96-.59-.37-1.19-.74-1.78-1.1-.5-.31-1.01-.62-1.51-.93-.61-.37-1.22-.72-1.83-1.08-.5-.29-1-.59-1.5-.88-.63-.36-1.26-.72-1.89-1.07-.49-.28-.98-.56-1.48-.83-.67-.37-1.34-.73-2.01-1.09-.46-.25-.93-.51-1.39-.75-.77-.41-1.54-.8-2.31-1.2-.38-.19-.75-.39-1.12-.58-1.15-.58-2.3-1.15-3.46-1.71-.18-.09-.36-.17-.54-.26-.98-.47-1.97-.94-2.96-1.4-.42-.19-.84-.38-1.26-.57-.76-.34-1.51-.69-2.27-1.02-.48-.21-.97-.42-1.46-.63-.7-.3-1.4-.61-2.11-.9-.51-.21-1.03-.42-1.54-.63-.68-.28-1.37-.56-2.06-.83-.53-.21-1.06-.41-1.59-.62-.68-.26-1.35-.52-2.03-.78-.54-.2-1.09-.4-1.64-.6-.67-.25-1.34-.49-2.02-.73-.56-.2-1.11-.39-1.67-.58-.67-.23-1.34-.46-2.01-.69-.57-.19-1.13-.37-1.7-.56-.67-.22-1.34-.43-2.01-.65-.57-.18-1.14-.35-1.72-.53-.68-.21-1.35-.41-2.03-.61-.57-.17-1.15-.33-1.73-.5-.36-.1-.73-.21-1.09-.31v-32.4c8.66,1.27,17.26,3.07,25.67,5.39l1.48.42c1.03.29,2.06.59,3.09.89l.74.22c1.31.4,2.62.81,3.91,1.23l.89.29c1.27.42,2.53.85,3.78,1.29l.95.34c1.24.44,2.47.89,3.69,1.35l.97.37c1.22.47,2.44.95,3.66,1.44l.93.38c1.22.5,2.44,1.01,3.65,1.53l.84.37c1.24.54,2.48,1.09,3.71,1.66l.65.3c1.28.6,2.56,1.2,3.84,1.82l.32.16c2.57,1.26,5.19,2.61,7.79,4.02,5.73,3.11,11.37,6.5,16.77,10.11l.33.22c1.11.74,2.21,1.5,3.3,2.27l.79.55c1.01.71,2.01,1.44,3.01,2.17l1.01.74c.95.7,1.89,1.41,2.82,2.12l1.13.87c.9.7,1.8,1.41,2.69,2.12.4.32.8.64,1.19.96.87.7,1.73,1.42,2.58,2.13.41.34.81.68,1.21,1.03.71.61,1.42,1.22,2.13,1.84l.37.32c.41.36.81.72,1.22,1.08.82.73,1.63,1.46,2.43,2.2.31.28.61.57.91.85l.29.27c.8.75,1.6,1.5,2.39,2.26.25.24.5.49.76.74l.38.38c.79.78,1.59,1.55,2.37,2.34l1.06,1.08c.8.82,1.6,1.63,2.38,2.46l.88.95c.83.89,1.67,1.78,2.48,2.68l.37.42c1.42,1.58,2.83,3.19,4.22,4.83.02.02.04.04.05.07,1.39,1.64,2.75,3.3,4.09,4.97l.64.79c.58.74,1.16,1.49,1.73,2.23l.65.84c.22.29.44.57.66.87.52.7,1.04,1.4,1.56,2.11l.61.84c.26.36.52.71.78,1.07.52.73,1.03,1.46,1.54,2.19l.27.39c.35.5.7,1,1.04,1.51.52.76,1.03,1.53,1.54,2.3.41.62.82,1.23,1.22,1.85.49.76.98,1.53,1.46,2.29.41.65.81,1.29,1.21,1.94.47.76.93,1.52,1.38,2.28.4.67.8,1.35,1.19,2.01.44.76.88,1.52,1.32,2.29.39.69.78,1.39,1.16,2.08.42.76.84,1.52,1.25,2.29.38.71.76,1.43,1.13,2.15.4.76.79,1.52,1.18,2.29.33.66.66,1.32.99,1.98l.29.58c.32.64.63,1.28.94,1.92.31.65.61,1.3.91,1.95l.47,1.02c.25.53.49,1.05.73,1.58.28.62.55,1.25.82,1.88l.56,1.28c.21.48.42.97.63,1.46.29.68.57,1.38.85,2.07l.55,1.35c.17.42.34.83.51,1.25.61,1.54,1.2,3.09,1.77,4.65.1.26.19.53.28.8l.32.89c.37,1.03.74,2.06,1.09,3.1.14.42.28.85.42,1.27l.34,1.05c.28.84.55,1.68.82,2.53.16.5.31,1.01.46,1.52l.19.62c.28.92.55,1.83.82,2.74.15.53.29,1.05.44,1.58l.17.64c.25.91.5,1.81.74,2.73.16.6.31,1.2.46,1.81.02.08.04.17.06.25l.05.2c.23.91.45,1.82.67,2.73.16.69.32,1.38.47,2.08l.05.21c.2.92.41,1.83.6,2.75.16.77.32,1.54.47,2.32.18.92.36,1.84.53,2.77.14.78.28,1.55.42,2.33.16.93.32,1.87.46,2.81.12.78.25,1.56.36,2.33.08.53.15,1.07.22,1.6-10.4,3.32-18.4,11.88-21,22.51h-6.38Zm-46.33,0c-.41-1.6-.85-3.19-1.31-4.77-.03-.1-.05-.2-.08-.3-.51-1.74-1.04-3.48-1.6-5.21-.19-.58-.39-1.15-.59-1.73-.38-1.15-.77-2.29-1.17-3.43-.25-.69-.51-1.37-.76-2.06-.38-1.02-.76-2.04-1.15-3.06-.28-.72-.58-1.44-.87-2.16-.39-.97-.79-1.94-1.2-2.9-.31-.74-.64-1.47-.96-2.2-.41-.93-.83-1.86-1.25-2.79-.34-.74-.7-1.48-1.05-2.21-.43-.91-.87-1.81-1.32-2.71-.37-.74-.74-1.47-1.12-2.2-.46-.89-.92-1.77-1.4-2.65-.39-.73-.79-1.46-1.19-2.18-.48-.87-.98-1.74-1.47-2.6-.41-.72-.83-1.43-1.25-2.14-.51-.86-1.04-1.72-1.56-2.57-.43-.7-.86-1.4-1.3-2.09-.54-.86-1.1-1.7-1.66-2.55-.45-.68-.89-1.35-1.34-2.03-.58-.86-1.18-1.71-1.78-2.55-.45-.64-.9-1.29-1.36-1.93-.63-.88-1.29-1.74-1.94-2.61-.45-.59-.88-1.19-1.34-1.78-.73-.95-1.49-1.89-2.24-2.83-.39-.49-.77-.98-1.16-1.46-1.16-1.41-2.33-2.81-3.54-4.19-1.2-1.37-2.42-2.73-3.65-4.07-.4-.44-.82-.86-1.23-1.29-.84-.89-1.68-1.78-2.54-2.66-.5-.51-1.02-1.01-1.53-1.51-.78-.78-1.56-1.56-2.36-2.32-.55-.53-1.11-1.04-1.67-1.57-.77-.72-1.54-1.44-2.33-2.15-.58-.53-1.18-1.04-1.77-1.56-.77-.68-1.55-1.36-2.34-2.03-.61-.52-1.23-1.03-1.85-1.54-.78-.65-1.57-1.29-2.36-1.93-.63-.51-1.27-1-1.91-1.5-.8-.62-1.59-1.24-2.4-1.84-.65-.49-1.31-.97-1.96-1.46-.81-.59-1.62-1.18-2.44-1.76-.67-.47-1.34-.94-2.01-1.4-.83-.57-1.66-1.13-2.49-1.68-.68-.45-1.36-.9-2.04-1.34-.85-.55-1.7-1.08-2.55-1.61-.69-.43-1.37-.85-2.07-1.27-.87-.53-1.75-1.04-2.63-1.55-.69-.4-1.38-.8-2.07-1.19-.9-.51-1.81-1-2.72-1.49-.69-.37-1.37-.75-2.06-1.11-.94-.49-1.89-.97-2.84-1.45-.67-.34-1.34-.68-2.01-1.01-1-.49-2.02-.96-3.03-1.43-.63-.29-1.26-.6-1.89-.88-1.13-.51-2.27-.99-3.41-1.48-.53-.23-1.05-.46-1.58-.68-.07-.03-.14-.06-.21-.09v-33.44c71.32,21.62,125.4,82.76,138.07,156.21h-31.13Zm-83.85,0c-2.78-11.36-11.74-20.31-23.1-23.1v-83.32c44.73,20.39,78.05,59.15,91.41,106.42h-68.31ZM341.38,126c-.62.12-1.24.26-1.86.39-.64.13-1.28.26-1.92.4-.93.2-1.86.42-2.78.64-.59.14-1.18.27-1.76.42-1.06.26-2.11.54-3.16.83-.45.12-.9.23-1.34.36-1.48.41-2.96.85-4.43,1.3-.38.12-.75.24-1.12.36-1.1.35-2.2.7-3.29,1.07-.57.19-1.13.4-1.69.6-.89.31-1.78.63-2.67.96-.62.23-1.23.47-1.84.71-.83.32-1.65.64-2.47.97-.63.26-1.26.52-1.89.78-.79.33-1.58.67-2.37,1.01-.64.28-1.27.56-1.9.85-.78.35-1.55.71-2.32,1.07-.63.3-1.26.6-1.88.9-.77.37-1.53.75-2.29,1.14-.62.31-1.23.62-1.84.94-.77.4-1.53.81-2.28,1.22-.59.32-1.19.64-1.78.97-.78.44-1.56.88-2.33,1.33-.56.32-1.11.64-1.67.96-.84.5-1.68,1.02-2.51,1.53-.47.29-.95.58-1.42.87-1.29.81-2.56,1.64-3.82,2.48-.23.15-.45.31-.68.47-1.04.71-2.08,1.42-3.11,2.15-.47.34-.93.68-1.4,1.02-.77.56-1.55,1.13-2.31,1.7-.52.39-1.02.79-1.53,1.18-.71.55-1.41,1.09-2.11,1.65-.53.42-1.04.85-1.56,1.27-.67.55-1.34,1.1-2.01,1.66-.52.44-1.04.89-1.56,1.34-.65.56-1.3,1.13-1.94,1.7-.51.46-1.02.92-1.53,1.38-.64.58-1.27,1.17-1.9,1.76-.49.47-.99.93-1.48,1.41-.63.61-1.25,1.23-1.87,1.85-.47.47-.94.94-1.41,1.42-.64.65-1.26,1.31-1.89,1.97-.44.46-.88.92-1.31,1.38-.67.73-1.33,1.46-1.99,2.2-.37.41-.74.82-1.11,1.24-.88,1.01-1.75,2.03-2.6,3.05-.13.16-.27.31-.4.47-.98,1.19-1.95,2.39-2.9,3.61-.31.39-.6.79-.9,1.19-.64.84-1.28,1.67-1.91,2.52-.36.49-.71.99-1.07,1.48-.55.77-1.1,1.53-1.64,2.31-.37.54-.74,1.08-1.1,1.62-.51.75-1.01,1.5-1.51,2.26-.37.56-.73,1.13-1.09,1.7-.48.75-.95,1.51-1.42,2.27-.36.58-.71,1.16-1.06,1.75-.22.37-.45.73-.66,1.1-.6-.3-1.21-.6-1.84-.91l-.27-.13c-1.36-.66-2.73-1.31-4.1-1.95l-.71-.33c-1.31-.6-2.64-1.19-3.96-1.77l-.91-.4c-1.3-.56-2.6-1.1-3.91-1.64l-1-.41c-1.3-.52-2.6-1.04-3.91-1.54l-1.04-.4c-1.32-.5-2.64-.98-3.96-1.45l-1.02-.36c-1.35-.47-2.7-.93-4.06-1.38l-.92-.3c23.2-48.05,68.48-82.53,120.91-92,3.46,10.1,11.92,17.86,22.31,20.43v5.41Zm0,202.32c-.27-.71-.54-1.41-.82-2.12-.19-.49-.39-.98-.59-1.46l-.51-1.26c-.31-.76-.62-1.53-.93-2.28-.23-.55-.47-1.1-.71-1.65l-.54-1.23c-.3-.69-.59-1.37-.9-2.05-.26-.59-.54-1.18-.81-1.76l-.46-1c-.33-.71-.65-1.41-.99-2.11-.33-.7-.68-1.39-1.02-2.09l-.29-.58c-.35-.72-.71-1.43-1.07-2.14-.41-.82-.84-1.63-1.26-2.44-.4-.77-.8-1.54-1.21-2.3-.44-.82-.88-1.63-1.33-2.44-.41-.75-.83-1.49-1.25-2.23-.46-.82-.93-1.63-1.41-2.44-.42-.72-.84-1.44-1.28-2.16-.49-.81-.98-1.63-1.48-2.44-.43-.69-.86-1.38-1.29-2.07-.52-.82-1.03-1.63-1.56-2.45-.43-.67-.87-1.33-1.31-1.99-.55-.82-1.09-1.65-1.65-2.46-.38-.55-.76-1.1-1.14-1.64l-.27-.39c-.55-.79-1.1-1.57-1.65-2.35-.29-.41-.58-.81-.88-1.21l-.6-.81c-.56-.76-1.12-1.53-1.68-2.28-.26-.34-.52-.68-.78-1.01l-.61-.79c-.62-.81-1.24-1.62-1.87-2.41-.15-.19-.29-.37-.44-.55l-.24-.3c-2.88-3.61-5.88-7.16-8.94-10.55l-.4-.46c-.88-.97-1.76-1.92-2.66-2.87l-.93-1c-.84-.89-1.69-1.76-2.55-2.63l-.4-.41c-.24-.25-.49-.5-.73-.75-.84-.84-1.68-1.67-2.53-2.5l-.36-.35c-.29-.28-.58-.57-.87-.84-.84-.81-1.7-1.62-2.56-2.42l-.28-.26c-.26-.24-.51-.48-.77-.72,13.51-22.82,34.39-40.87,58.79-50.95v137.64Zm-64.84-230.82c-1.04.45-2.07.92-3.1,1.39-.18.08-.36.16-.54.24-1.57.73-3.14,1.48-4.69,2.25-.41.2-.82.41-1.23.62-1.25.63-2.5,1.28-3.74,1.94-.34.18-.69.36-1.03.55-1.52.83-3.03,1.67-4.53,2.54-.3.17-.6.35-.9.53-1.24.73-2.48,1.47-3.7,2.23-.38.24-.76.47-1.14.71-1.48.93-2.96,1.88-4.41,2.86-.02.02-.05.03-.07.05-1.43.96-2.84,1.94-4.24,2.94-.36.26-.72.52-1.08.78-1.23.89-2.44,1.79-3.65,2.71-.2.16-.41.31-.61.46-1.39,1.07-2.77,2.16-4.13,3.27-.29.24-.58.48-.87.72-1.12.92-2.23,1.86-3.33,2.81-.29.25-.59.51-.88.76-1.33,1.16-2.64,2.34-3.93,3.55-.14.13-.28.27-.43.4-1.15,1.08-2.29,2.17-3.41,3.28-.3.3-.61.6-.91.9-1.2,1.2-2.39,2.42-3.56,3.65-.04.04-.08.08-.12.13-1.22,1.29-2.42,2.6-3.6,3.93-.27.31-.54.62-.82.92-.98,1.11-1.95,2.24-2.9,3.38-.21.25-.42.5-.63.75-1.13,1.36-2.24,2.74-3.32,4.13-.2.25-.39.51-.59.76-.91,1.17-1.8,2.36-2.68,3.56-.25.34-.5.68-.75,1.03-1.04,1.44-2.07,2.89-3.07,4.37-.03.05-.06.1-.1.15-.96,1.41-1.89,2.84-2.81,4.28-.24.38-.49.77-.73,1.15-.82,1.3-1.62,2.61-2.4,3.94-.13.22-.27.44-.4.66-.89,1.52-1.76,3.06-2.61,4.62-.2.37-.4.74-.6,1.11-.68,1.26-1.35,2.53-2,3.81-.19.38-.39.76-.58,1.14-.74,1.48-1.47,2.97-2.17,4.48-.17-.04-.34-.08-.51-.12-1.64-.41-3.28-.8-4.93-1.17-.55-.13-1.11-.25-1.66-.37-1.45-.32-2.89-.62-4.35-.91-.44-.09-.88-.18-1.33-.27-1.85-.35-3.7-.69-5.55-1-.42-.07-.83-.13-1.25-.2-1.49-.24-2.99-.47-4.49-.68-.29-.04-.59-.09-.88-.13v-62.52c11.36-2.78,20.31-11.74,23.1-23.1h94.82Zm64.84,77.1c-.21.08-.41.16-.62.23-.38.14-.76.28-1.13.42-.61.23-1.22.47-1.83.71-.38.15-.76.3-1.13.45-.62.25-1.24.51-1.85.77-.35.15-.71.3-1.06.45-.69.3-1.37.6-2.06.91-.27.12-.55.24-.82.37-.95.44-1.9.88-2.84,1.34-.15.07-.29.15-.43.22-.79.39-1.58.79-2.37,1.19-.32.16-.63.33-.94.5-.61.32-1.22.65-1.83.98-.35.19-.7.39-1.05.58-.57.32-1.14.64-1.7.96-.36.21-.71.41-1.07.62-.56.33-1.13.67-1.69,1.01-.34.21-.68.41-1.01.62-.6.37-1.2.75-1.8,1.13-.28.18-.57.36-.86.55-.86.56-1.72,1.13-2.57,1.71,0,0-.02.01-.03.02-.86.59-1.72,1.19-2.57,1.8-.27.19-.53.39-.8.59-.58.42-1.16.84-1.73,1.27-.31.24-.62.47-.93.71-.52.4-1.04.8-1.56,1.21-.32.25-.64.51-.96.77-.51.41-1.01.82-1.51,1.23-.31.26-.62.51-.93.77-.53.44-1.05.89-1.57,1.34-.27.24-.55.47-.82.71-.65.57-1.29,1.15-1.93,1.73-.13.12-.27.24-.4.36-.77.71-1.53,1.43-2.28,2.15-.21.2-.41.4-.62.6-.54.53-1.08,1.06-1.62,1.6-.27.27-.53.54-.8.81-.47.48-.94.96-1.4,1.45-.28.29-.55.59-.83.88-.45.48-.89.96-1.33,1.45-.27.3-.54.59-.81.89-.45.51-.9,1.02-1.34,1.53-.24.28-.49.56-.73.84-.52.61-1.03,1.22-1.53,1.84-.16.19-.32.38-.48.57-.66.82-1.32,1.64-1.97,2.48-.12.15-.23.31-.35.46-.52.68-1.04,1.36-1.55,2.05-.21.28-.41.56-.61.84-.42.57-.83,1.15-1.24,1.72-.22.31-.44.63-.66.95-.39.56-.77,1.12-1.15,1.68-.22.32-.43.64-.64.97-.38.58-.76,1.17-1.14,1.76-.19.3-.39.6-.58.91-.09.14-.18.29-.27.43-.21-.17-.42-.34-.63-.51-.95-.76-1.91-1.52-2.87-2.26l-1.21-.93c-1-.77-2.01-1.53-3.02-2.28l-1.08-.79c-1.07-.78-2.14-1.56-3.22-2.32l-.85-.59c-1.17-.82-2.34-1.63-3.54-2.43l-.36-.24c-3.71-2.48-7.5-4.85-11.31-7.09,21.44-36.31,57.38-62.2,98.41-70.97v33.3Z"/>
</svg>